<svg preserveAspectRatio="none" overflow="visible" style="display: block;" width="40" height="40" viewBox="0 0 40 40" fill="none" xmlns="http://www.w3.org/2000/svg">
<g id="Illustrator logo">
<g clip-path="url(#clip0_0_131)">
<path id="Vector" d="M30.625 0H9.375C4.19733 0 0 4.19733 0 9.375V30.625C0 35.8027 4.19733 40 9.375 40H30.625C35.8027 40 40 35.8027 40 30.625V9.375C40 4.19733 35.8027 0 30.625 0Z" fill="#330000"/>
<path id="Vector_2" d="M19.3333 23.802H13.1333L11.8666 27.7187C11.8333 27.8687 11.7 27.9687 11.55 27.952H8.41663C8.23328 27.952 8.18328 27.852 8.23328 27.652L13.6 12.2021C13.65 12.0354 13.7 11.8521 13.7666 11.6521C13.8333 11.3021 13.8666 10.9354 13.8666 10.5688C13.85 10.4854 13.9166 10.4021 14 10.3854H14.05H18.3166C18.45 10.3854 18.5166 10.4354 18.5333 10.5188L24.6166 27.6855C24.6666 27.8687 24.6166 27.952 24.45 27.952H20.9666C20.85 27.9687 20.7333 27.8855 20.7 27.7687L19.3333 23.802ZM14.1 20.4187H18.3333C18.2333 20.0687 18.1 19.652 17.95 19.2187C17.8 18.7687 17.65 18.2855 17.5 17.7855C17.3333 17.2687 17.1833 16.7687 17.0166 16.252C16.85 15.7355 16.7 15.2521 16.5666 14.7688C16.4333 14.3021 16.3166 13.8688 16.2 13.4688H16.1666C16.0166 14.1854 15.8333 14.9021 15.6 15.6188C15.35 16.4187 15.1 17.252 14.8333 18.0855C14.6 18.9355 14.35 19.7187 14.1 20.4187Z" fill="#FF9A00"/>
<path id="Vector_3" d="M28.3333 13.3021C27.7833 13.3188 27.25 13.1021 26.85 12.7188C26.4667 12.3021 26.2667 11.7521 26.2833 11.1854C26.2667 10.6188 26.4833 10.0854 26.8833 9.70209C27.2833 9.31876 27.8167 9.11876 28.3667 9.11876C29.0167 9.11876 29.5167 9.31876 29.8833 9.70209C30.25 10.1021 30.45 10.6354 30.4333 11.1854C30.45 11.7521 30.25 12.3021 29.85 12.7188C29.4667 13.1188 28.9 13.3354 28.3333 13.3021ZM26.4667 27.7687V14.9354C26.4667 14.7688 26.5333 14.7021 26.6833 14.7021H29.9833C30.1333 14.7021 30.2 14.7854 30.2 14.9354V27.7687C30.2 27.952 30.1333 28.0355 29.9833 28.0355H26.7167C26.55 28.0355 26.4667 27.9355 26.4667 27.7687Z" fill="#FF9A00"/>
</g>
</g>
<defs>
<clipPath id="clip0_0_131">
<rect width="40" height="40" rx="20" fill="white"/>
</clipPath>
</defs>
</svg>
