<svg preserveAspectRatio="none" overflow="visible" style="display: block;" width="16.1482" height="16.1482" viewBox="0 0 16.1482 16.1482" fill="none" xmlns="http://www.w3.org/2000/svg">
<g id="Icon">
<path id="Vector" d="M8.07342 14.8026C11.7894 14.8026 14.8018 11.7902 14.8018 8.07416C14.8018 4.35816 11.7894 1.34576 8.07342 1.34576C4.35743 1.34576 1.34502 4.35816 1.34502 8.07416C1.34502 11.7902 4.35743 14.8026 8.07342 14.8026Z" stroke="#F8F8F8" stroke-width="1.61311" stroke-linecap="round" stroke-linejoin="round"/>
<path id="Vector_2" d="M6.11535 6.05576C6.27354 5.60608 6.58577 5.22689 6.99674 4.98536C7.40772 4.74383 7.89091 4.65553 8.36074 4.73612C8.83057 4.81671 9.25672 5.06098 9.56371 5.42566C9.8707 5.79034 10.0387 6.2519 10.038 6.7286C10.038 8.07428 8.01949 8.74712 8.01949 8.74712" stroke="#F8F8F8" stroke-width="1.61311" stroke-linecap="round" stroke-linejoin="round"/>
<path id="Vector_3" d="M8.07395 11.4384H8.08201" stroke="#F8F8F8" stroke-width="1.61311" stroke-linecap="round" stroke-linejoin="round"/>
</g>
</svg>
